<svg xmlns="http://www.w3.org/2000/svg" viewBox="0 0 24 24" fill="#25D366"><path d="M17.472 14.382c-.297-.149-1.758-.867-2.03-.966-.273-.099-.471-.149-.67.15-.2.3-.767.966-.94 1.164-.173.199-.346.224-.647.075-.3-.15-1.27-.468-2.42-1.494-.894-.798-1.498-1.783-1.674-2.085-.176-.302-.02-.465.132-.615.136-.135.301-.35.452-.526.151-.176.201-.301.302-.502.1-.2.05-.375-.025-.525-.075-.15-.673-1.62-.922-2.218-.243-.582-.489-.48-.674-.48-.173-.005-.371-.01-.57-.01-.2 0-.524.074-.799.374-.275.3-1.045 1.02-1.045 2.488 0 1.467 1.07 2.887 1.22 3.086.15.2 2.105 3.22 5.103 4.514.712.308 1.267.492 1.7.63.719.227 1.372.195 1.887.118.574-.085 1.767-.721 2.015-1.418.248-.696.248-1.296.173-1.422-.074-.125-.272-.199-.573-.348z"/></svg>